<?xml version="1.0"?>
<svg version="1.1" xmlns="http://www.w3.org/2000/svg" width="51px" height="51px" style=""><path fill="#" d="M31.076,48.204c0,0.792-0.396,1.056-1.056,1.056l-15.664,0c-0.792,0-1.144-0.264-1.144-1.232l0-28.116c0-0.704,0.352-1.1,1.056-1.1l3.52,0c0.792,0,1.1,0.308,1.1,1.144l0,24.596l11.132,0c0.748,0,1.056,0.352,1.056,1.012l0,2.64z"/><path fill="#" d="M35.756,28.58l-0.7-2.408s-1.316-0.448-3.164-0.448c-2.996,0-4.676,2.184-4.676,6.86c0,4.536,1.764,6.496,4.76,6.496c1.456,0,3.08-0.504,3.08-0.504l0-3.528l-2.1-0.644l0-2.296l8.064-0.14l0,2.436l-1.904,0.644l0,5.712s-2.884,1.876-7.616,1.876c-5.684,0-8.96-3.416-8.96-9.912c0-6.58,3.696-10.5,9.436-10.5c3.388,0,6.524,1.316,6.524,1.316l-0.14,5.04l-2.604,0z"/></svg>
